<?xml version="1.0" encoding="UTF-8" standalone="no"?>
<!DOCTYPE svg PUBLIC "-//W3C//DTD SVG 1.1//EN"
 "http://www.w3.org/Graphics/SVG/1.1/DTD/svg11.dtd">
<!-- Generated by graphviz version 2.43.0 (0)
 -->
<!-- Pages: 1 -->
<svg width="581pt" height="345pt"
 viewBox="0.00 0.00 580.50 344.85" xmlns="http://www.w3.org/2000/svg" xmlns:xlink="http://www.w3.org/1999/xlink">
<g id="graph0" class="graph" transform="scale(1 1) rotate(0) translate(4 340.85)">
<polygon fill="white" stroke="transparent" points="-4,4 -4,-340.85 576.5,-340.85 576.5,4 -4,4"/>
<!-- 139733842213808 -->
<g id="node1" class="node">
<title>139733842213808</title>
<ellipse fill="none" stroke="black" stroke-width="2" cx="114" cy="-315.64" rx="114" ry="21.43"/>
<text text-anchor="start" x="41.39" y="-318.64" font-family="Courier New" font-size="10.00">&lt;start&gt;</text>
<text text-anchor="start" x="41.39" y="-307.64" font-family="Courier New" font-size="10.00">greattestof3 &lt;&#45; function</text>
</g>
<!-- 139733837872912 -->
<g id="node2" class="node">
<title>139733837872912</title>
<ellipse fill="none" stroke="black" stroke-width="2" cx="87" cy="-237.21" rx="34.96" ry="18"/>
<text text-anchor="start" x="65.5" y="-234.71" font-family="Courier New" font-size="10.00">&lt;raise&gt;</text>
</g>
<!-- 139733842213808&#45;&gt;139733837872912 -->
<g id="edge1" class="edge">
<title>139733842213808&#45;&gt;139733837872912</title>
<path fill="none" stroke="black" stroke-dasharray="5,2" d="M106.77,-294.16C103.57,-285.1 99.77,-274.34 96.35,-264.68"/>
<polygon fill="black" stroke="black" points="99.61,-263.4 92.98,-255.14 93.01,-265.73 99.61,-263.4"/>
</g>
<!-- 139733837873008 -->
<g id="node3" class="node">
<title>139733837873008</title>
<ellipse fill="none" stroke="black" stroke-width="2" cx="171" cy="-237.21" rx="31.4" ry="18"/>
<text text-anchor="start" x="152.5" y="-234.71" font-family="Courier New" font-size="10.00">&lt;exit&gt;</text>
</g>
<!-- 139733842213808&#45;&gt;139733837873008 -->
<g id="edge2" class="edge">
<title>139733842213808&#45;&gt;139733837873008</title>
<path fill="none" stroke="black" d="M128.98,-294.56C136.3,-284.75 145.17,-272.86 152.87,-262.53"/>
<polygon fill="black" stroke="black" points="155.83,-264.42 159,-254.31 150.22,-260.23 155.83,-264.42"/>
</g>
<!-- 139733837871904 -->
<g id="node4" class="node">
<title>139733837871904</title>
<ellipse fill="none" stroke="black" stroke-width="2" cx="352" cy="-315.64" rx="80.79" ry="18"/>
<text text-anchor="start" x="291.5" y="-313.14" font-family="Courier New" font-size="10.00">&lt;entry:greattestof3&gt;</text>
</g>
<!-- 139733837871856 -->
<g id="node5" class="node">
<title>139733837871856</title>
<ellipse fill="none" stroke="black" cx="352" cy="-237.21" rx="101.23" ry="21.43"/>
<text text-anchor="start" x="288.5" y="-240.21" font-family="Courier New" font-size="10.00">y, x, z &lt;&#45; args</text>
<text text-anchor="start" x="288.5" y="-229.21" font-family="Courier New" font-size="10.00">((x &gt; y) and (x &gt; z))</text>
</g>
<!-- 139733837871904&#45;&gt;139733837871856 -->
<g id="edge3" class="edge">
<title>139733837871904&#45;&gt;139733837871856</title>
<path fill="none" stroke="black" d="M352,-297.3C352,-288.82 352,-278.37 352,-268.63"/>
<polygon fill="black" stroke="black" points="355.5,-268.46 352,-258.46 348.5,-268.46 355.5,-268.46"/>
</g>
<!-- 139733837872048 -->
<g id="node6" class="node">
<title>139733837872048</title>
<ellipse fill="none" stroke="black" stroke-width="2" cx="344" cy="-18" rx="34.96" ry="18"/>
<text text-anchor="start" x="322.5" y="-15.5" font-family="Courier New" font-size="10.00">&lt;raise&gt;</text>
</g>
<!-- 139733837871856&#45;&gt;139733837872048 -->
<g id="edge4" class="edge">
<title>139733837871856&#45;&gt;139733837872048</title>
<path fill="none" stroke="black" stroke-dasharray="5,2" d="M303.26,-218.62C286.13,-209.81 268.74,-197.25 259,-180 231.19,-130.68 283.92,-71.55 318.1,-40.49"/>
<polygon fill="black" stroke="black" points="320.74,-42.83 325.91,-33.58 316.1,-37.58 320.74,-42.83"/>
</g>
<!-- 139733837872336 -->
<g id="node7" class="node">
<title>139733837872336</title>
<ellipse fill="none" stroke="black" cx="352" cy="-162" rx="84.36" ry="18"/>
<text text-anchor="start" x="288.5" y="-159.5" font-family="Courier New" font-size="10.00">((y &gt; z) and (y &gt; x))</text>
</g>
<!-- 139733837871856&#45;&gt;139733837872336 -->
<g id="edge5" class="edge">
<title>139733837871856&#45;&gt;139733837872336</title>
<path fill="none" stroke="black" d="M352,-215.82C352,-207.97 352,-198.86 352,-190.45"/>
<polygon fill="black" stroke="black" points="355.5,-190.31 352,-180.31 348.5,-190.31 355.5,-190.31"/>
</g>
<!-- 139733837872864 -->
<g id="node8" class="node">
<title>139733837872864</title>
<ellipse fill="none" stroke="black" cx="534" cy="-90" rx="38.5" ry="18"/>
<text text-anchor="start" x="509.3" y="-87.5" font-family="Courier New" font-size="10.00">return x</text>
</g>
<!-- 139733837871856&#45;&gt;139733837872864 -->
<g id="edge6" class="edge">
<title>139733837871856&#45;&gt;139733837872864</title>
<path fill="none" stroke="black" d="M387.77,-217.3C405.63,-207.19 427.18,-193.96 445,-180 470.44,-160.07 496.19,-133.47 513.4,-114.55"/>
<polygon fill="black" stroke="black" points="516.14,-116.73 520.23,-106.96 510.94,-112.05 516.14,-116.73"/>
</g>
<!-- 139733837872336&#45;&gt;139733837872048 -->
<g id="edge7" class="edge">
<title>139733837872336&#45;&gt;139733837872048</title>
<path fill="none" stroke="black" stroke-dasharray="5,2" d="M327.49,-144.65C315.91,-135.41 303.28,-122.77 297,-108 290.74,-93.28 291.33,-86.96 297,-72 301.46,-60.26 309.84,-49.46 318.3,-40.71"/>
<polygon fill="black" stroke="black" points="320.91,-43.05 325.66,-33.58 316.04,-38.02 320.91,-43.05"/>
</g>
<!-- 139733837870224 -->
<g id="node9" class="node">
<title>139733837870224</title>
<ellipse fill="none" stroke="black" cx="439" cy="-90" rx="38.5" ry="18"/>
<text text-anchor="start" x="414.3" y="-87.5" font-family="Courier New" font-size="10.00">return z</text>
</g>
<!-- 139733837872336&#45;&gt;139733837870224 -->
<g id="edge8" class="edge">
<title>139733837872336&#45;&gt;139733837870224</title>
<path fill="none" stroke="black" d="M372.62,-144.41C384.58,-134.79 399.75,-122.58 412.58,-112.26"/>
<polygon fill="black" stroke="black" points="415.01,-114.8 420.61,-105.8 410.62,-109.34 415.01,-114.8"/>
</g>
<!-- 139733837870368 -->
<g id="node10" class="node">
<title>139733837870368</title>
<ellipse fill="none" stroke="black" cx="344" cy="-90" rx="38.5" ry="18"/>
<text text-anchor="start" x="319.3" y="-87.5" font-family="Courier New" font-size="10.00">return y</text>
</g>
<!-- 139733837872336&#45;&gt;139733837870368 -->
<g id="edge9" class="edge">
<title>139733837872336&#45;&gt;139733837870368</title>
<path fill="none" stroke="black" d="M350.03,-143.7C349.15,-135.98 348.09,-126.71 347.1,-118.11"/>
<polygon fill="black" stroke="black" points="350.57,-117.64 345.96,-108.1 343.61,-118.43 350.57,-117.64"/>
</g>
<!-- 139733837872864&#45;&gt;139733837872048 -->
<g id="edge10" class="edge">
<title>139733837872864&#45;&gt;139733837872048</title>
<path fill="none" stroke="black" stroke-dasharray="5,2" d="M504.73,-78.22C471.53,-65.98 417.3,-46.01 381.14,-32.68"/>
<polygon fill="black" stroke="black" points="382.05,-29.29 371.46,-29.11 379.63,-35.86 382.05,-29.29"/>
</g>
<!-- 139733837871664 -->
<g id="node11" class="node">
<title>139733837871664</title>
<ellipse fill="none" stroke="black" stroke-width="2" cx="439" cy="-18" rx="38.5" ry="18"/>
<text text-anchor="start" x="414.3" y="-15.5" font-family="Courier New" font-size="10.00">&lt;return&gt;</text>
</g>
<!-- 139733837872864&#45;&gt;139733837871664 -->
<g id="edge11" class="edge">
<title>139733837872864&#45;&gt;139733837871664</title>
<path fill="none" stroke="black" d="M514.32,-74.5C500.56,-64.36 482,-50.68 466.75,-39.44"/>
<polygon fill="black" stroke="black" points="468.79,-36.6 458.66,-33.48 464.64,-42.23 468.79,-36.6"/>
</g>
<!-- 139733837870224&#45;&gt;139733837872048 -->
<g id="edge12" class="edge">
<title>139733837870224&#45;&gt;139733837872048</title>
<path fill="none" stroke="black" stroke-dasharray="5,2" d="M419.32,-74.5C405.47,-64.29 386.75,-50.5 371.44,-39.22"/>
<polygon fill="black" stroke="black" points="373.47,-36.36 363.34,-33.25 369.31,-42 373.47,-36.36"/>
</g>
<!-- 139733837870224&#45;&gt;139733837871664 -->
<g id="edge13" class="edge">
<title>139733837870224&#45;&gt;139733837871664</title>
<path fill="none" stroke="black" d="M439,-71.7C439,-63.98 439,-54.71 439,-46.11"/>
<polygon fill="black" stroke="black" points="442.5,-46.1 439,-36.1 435.5,-46.1 442.5,-46.1"/>
</g>
<!-- 139733837870368&#45;&gt;139733837872048 -->
<g id="edge14" class="edge">
<title>139733837870368&#45;&gt;139733837872048</title>
<path fill="none" stroke="black" stroke-dasharray="5,2" d="M344,-71.7C344,-63.98 344,-54.71 344,-46.11"/>
<polygon fill="black" stroke="black" points="347.5,-46.1 344,-36.1 340.5,-46.1 347.5,-46.1"/>
</g>
<!-- 139733837870368&#45;&gt;139733837871664 -->
<g id="edge15" class="edge">
<title>139733837870368&#45;&gt;139733837871664</title>
<path fill="none" stroke="black" d="M363.69,-74.5C377.45,-64.36 396.01,-50.68 411.26,-39.44"/>
<polygon fill="black" stroke="black" points="413.37,-42.23 419.35,-33.48 409.22,-36.6 413.37,-42.23"/>
</g>
</g>
</svg>
