<?xml version="1.0" encoding="UTF-8" standalone="no"?>
<!DOCTYPE svg PUBLIC "-//W3C//DTD SVG 1.1//EN"
 "http://www.w3.org/Graphics/SVG/1.1/DTD/svg11.dtd">
<!-- Generated by graphviz version 2.43.0 (0)
 -->
<!-- Pages: 1 -->
<svg width="582pt" height="345pt"
 viewBox="0.00 0.00 581.50 344.85" xmlns="http://www.w3.org/2000/svg" xmlns:xlink="http://www.w3.org/1999/xlink">
<g id="graph0" class="graph" transform="scale(1 1) rotate(0) translate(4 340.85)">
<polygon fill="white" stroke="transparent" points="-4,4 -4,-340.85 577.5,-340.85 577.5,4 -4,4"/>
<!-- 139939285826528 -->
<g id="node1" class="node">
<title>139939285826528</title>
<ellipse fill="none" stroke="black" stroke-width="2" cx="114" cy="-315.64" rx="114" ry="21.43"/>
<text text-anchor="start" x="41.39" y="-318.64" font-family="Courier New" font-size="10.00">&lt;start&gt;</text>
<text text-anchor="start" x="41.39" y="-307.64" font-family="Courier New" font-size="10.00">greattestof3 &lt;&#45; function</text>
</g>
<!-- 139939281088048 -->
<g id="node2" class="node">
<title>139939281088048</title>
<ellipse fill="none" stroke="black" stroke-width="2" cx="86" cy="-237.21" rx="31.4" ry="18"/>
<text text-anchor="start" x="67.5" y="-234.71" font-family="Courier New" font-size="10.00">&lt;exit&gt;</text>
</g>
<!-- 139939285826528&#45;&gt;139939281088048 -->
<g id="edge1" class="edge">
<title>139939285826528&#45;&gt;139939281088048</title>
<path fill="none" stroke="black" d="M106.5,-294.16C103.18,-285.1 99.24,-274.34 95.7,-264.68"/>
<polygon fill="black" stroke="black" points="98.93,-263.32 92.2,-255.14 92.36,-265.73 98.93,-263.32"/>
</g>
<!-- 139939281088720 -->
<g id="node3" class="node">
<title>139939281088720</title>
<ellipse fill="none" stroke="black" stroke-width="2" cx="170" cy="-237.21" rx="34.96" ry="18"/>
<text text-anchor="start" x="148.5" y="-234.71" font-family="Courier New" font-size="10.00">&lt;raise&gt;</text>
</g>
<!-- 139939285826528&#45;&gt;139939281088720 -->
<g id="edge2" class="edge">
<title>139939285826528&#45;&gt;139939281088720</title>
<path fill="none" stroke="black" stroke-dasharray="5,2" d="M128.72,-294.56C135.91,-284.75 144.62,-272.86 152.18,-262.53"/>
<polygon fill="black" stroke="black" points="155.12,-264.44 158.21,-254.31 149.47,-260.3 155.12,-264.44"/>
</g>
<!-- 139939279436768 -->
<g id="node4" class="node">
<title>139939279436768</title>
<ellipse fill="none" stroke="black" stroke-width="2" cx="353" cy="-315.64" rx="80.79" ry="18"/>
<text text-anchor="start" x="292.5" y="-313.14" font-family="Courier New" font-size="10.00">&lt;entry:greattestof3&gt;</text>
</g>
<!-- 139939279436624 -->
<g id="node5" class="node">
<title>139939279436624</title>
<ellipse fill="none" stroke="black" cx="353" cy="-237.21" rx="101.23" ry="21.43"/>
<text text-anchor="start" x="289.5" y="-240.21" font-family="Courier New" font-size="10.00">x, z, y &lt;&#45; args</text>
<text text-anchor="start" x="289.5" y="-229.21" font-family="Courier New" font-size="10.00">((x &gt; y) and (x &gt; z))</text>
</g>
<!-- 139939279436768&#45;&gt;139939279436624 -->
<g id="edge3" class="edge">
<title>139939279436768&#45;&gt;139939279436624</title>
<path fill="none" stroke="black" d="M353,-297.3C353,-288.82 353,-278.37 353,-268.63"/>
<polygon fill="black" stroke="black" points="356.5,-268.46 353,-258.46 349.5,-268.46 356.5,-268.46"/>
</g>
<!-- 139939279436288 -->
<g id="node6" class="node">
<title>139939279436288</title>
<ellipse fill="none" stroke="black" stroke-width="2" cx="345" cy="-18" rx="34.96" ry="18"/>
<text text-anchor="start" x="323.5" y="-15.5" font-family="Courier New" font-size="10.00">&lt;raise&gt;</text>
</g>
<!-- 139939279436624&#45;&gt;139939279436288 -->
<g id="edge4" class="edge">
<title>139939279436624&#45;&gt;139939279436288</title>
<path fill="none" stroke="black" stroke-dasharray="5,2" d="M304.26,-218.62C287.13,-209.81 269.74,-197.25 260,-180 232.19,-130.68 284.92,-71.55 319.1,-40.49"/>
<polygon fill="black" stroke="black" points="321.74,-42.83 326.91,-33.58 317.1,-37.58 321.74,-42.83"/>
</g>
<!-- 139939279437008 -->
<g id="node7" class="node">
<title>139939279437008</title>
<ellipse fill="none" stroke="black" cx="535" cy="-90" rx="38.5" ry="18"/>
<text text-anchor="start" x="510.3" y="-87.5" font-family="Courier New" font-size="10.00">return x</text>
</g>
<!-- 139939279436624&#45;&gt;139939279437008 -->
<g id="edge5" class="edge">
<title>139939279436624&#45;&gt;139939279437008</title>
<path fill="none" stroke="black" d="M388.77,-217.3C406.63,-207.19 428.18,-193.96 446,-180 471.44,-160.07 497.19,-133.47 514.4,-114.55"/>
<polygon fill="black" stroke="black" points="517.14,-116.73 521.23,-106.96 511.94,-112.05 517.14,-116.73"/>
</g>
<!-- 139939279437152 -->
<g id="node8" class="node">
<title>139939279437152</title>
<ellipse fill="none" stroke="black" cx="353" cy="-162" rx="84.36" ry="18"/>
<text text-anchor="start" x="289.5" y="-159.5" font-family="Courier New" font-size="10.00">((y &gt; z) and (y &gt; x))</text>
</g>
<!-- 139939279436624&#45;&gt;139939279437152 -->
<g id="edge6" class="edge">
<title>139939279436624&#45;&gt;139939279437152</title>
<path fill="none" stroke="black" d="M353,-215.82C353,-207.97 353,-198.86 353,-190.45"/>
<polygon fill="black" stroke="black" points="356.5,-190.31 353,-180.31 349.5,-190.31 356.5,-190.31"/>
</g>
<!-- 139939279437008&#45;&gt;139939279436288 -->
<g id="edge7" class="edge">
<title>139939279437008&#45;&gt;139939279436288</title>
<path fill="none" stroke="black" stroke-dasharray="5,2" d="M505.73,-78.22C472.53,-65.98 418.3,-46.01 382.14,-32.68"/>
<polygon fill="black" stroke="black" points="383.05,-29.29 372.46,-29.11 380.63,-35.86 383.05,-29.29"/>
</g>
<!-- 139939279435760 -->
<g id="node9" class="node">
<title>139939279435760</title>
<ellipse fill="none" stroke="black" stroke-width="2" cx="440" cy="-18" rx="38.5" ry="18"/>
<text text-anchor="start" x="415.3" y="-15.5" font-family="Courier New" font-size="10.00">&lt;return&gt;</text>
</g>
<!-- 139939279437008&#45;&gt;139939279435760 -->
<g id="edge8" class="edge">
<title>139939279437008&#45;&gt;139939279435760</title>
<path fill="none" stroke="black" d="M515.32,-74.5C501.56,-64.36 483,-50.68 467.75,-39.44"/>
<polygon fill="black" stroke="black" points="469.79,-36.6 459.66,-33.48 465.64,-42.23 469.79,-36.6"/>
</g>
<!-- 139939279437152&#45;&gt;139939279436288 -->
<g id="edge9" class="edge">
<title>139939279437152&#45;&gt;139939279436288</title>
<path fill="none" stroke="black" stroke-dasharray="5,2" d="M328.49,-144.65C316.91,-135.41 304.28,-122.77 298,-108 291.74,-93.28 292.33,-86.96 298,-72 302.46,-60.26 310.84,-49.46 319.3,-40.71"/>
<polygon fill="black" stroke="black" points="321.91,-43.05 326.66,-33.58 317.04,-38.02 321.91,-43.05"/>
</g>
<!-- 139939279435328 -->
<g id="node10" class="node">
<title>139939279435328</title>
<ellipse fill="none" stroke="black" cx="440" cy="-90" rx="38.5" ry="18"/>
<text text-anchor="start" x="415.3" y="-87.5" font-family="Courier New" font-size="10.00">return y</text>
</g>
<!-- 139939279437152&#45;&gt;139939279435328 -->
<g id="edge10" class="edge">
<title>139939279437152&#45;&gt;139939279435328</title>
<path fill="none" stroke="black" d="M373.62,-144.41C385.58,-134.79 400.75,-122.58 413.58,-112.26"/>
<polygon fill="black" stroke="black" points="416.01,-114.8 421.61,-105.8 411.62,-109.34 416.01,-114.8"/>
</g>
<!-- 139939279847488 -->
<g id="node11" class="node">
<title>139939279847488</title>
<ellipse fill="none" stroke="black" cx="345" cy="-90" rx="38.5" ry="18"/>
<text text-anchor="start" x="320.3" y="-87.5" font-family="Courier New" font-size="10.00">return z</text>
</g>
<!-- 139939279437152&#45;&gt;139939279847488 -->
<g id="edge11" class="edge">
<title>139939279437152&#45;&gt;139939279847488</title>
<path fill="none" stroke="black" d="M351.03,-143.7C350.15,-135.98 349.09,-126.71 348.1,-118.11"/>
<polygon fill="black" stroke="black" points="351.57,-117.64 346.96,-108.1 344.61,-118.43 351.57,-117.64"/>
</g>
<!-- 139939279435328&#45;&gt;139939279436288 -->
<g id="edge12" class="edge">
<title>139939279435328&#45;&gt;139939279436288</title>
<path fill="none" stroke="black" stroke-dasharray="5,2" d="M420.32,-74.5C406.47,-64.29 387.75,-50.5 372.44,-39.22"/>
<polygon fill="black" stroke="black" points="374.47,-36.36 364.34,-33.25 370.31,-42 374.47,-36.36"/>
</g>
<!-- 139939279435328&#45;&gt;139939279435760 -->
<g id="edge13" class="edge">
<title>139939279435328&#45;&gt;139939279435760</title>
<path fill="none" stroke="black" d="M440,-71.7C440,-63.98 440,-54.71 440,-46.11"/>
<polygon fill="black" stroke="black" points="443.5,-46.1 440,-36.1 436.5,-46.1 443.5,-46.1"/>
</g>
<!-- 139939279847488&#45;&gt;139939279436288 -->
<g id="edge14" class="edge">
<title>139939279847488&#45;&gt;139939279436288</title>
<path fill="none" stroke="black" stroke-dasharray="5,2" d="M345,-71.7C345,-63.98 345,-54.71 345,-46.11"/>
<polygon fill="black" stroke="black" points="348.5,-46.1 345,-36.1 341.5,-46.1 348.5,-46.1"/>
</g>
<!-- 139939279847488&#45;&gt;139939279435760 -->
<g id="edge15" class="edge">
<title>139939279847488&#45;&gt;139939279435760</title>
<path fill="none" stroke="black" d="M364.69,-74.5C378.45,-64.36 397.01,-50.68 412.26,-39.44"/>
<polygon fill="black" stroke="black" points="414.37,-42.23 420.35,-33.48 410.22,-36.6 414.37,-42.23"/>
</g>
</g>
</svg>
